<?xml version="1.0" encoding="UTF-8"?>
<!DOCTYPE svg PUBLIC "-//W3C//DTD SVG 1.1//EN" "http://www.w3.org/Graphics/SVG/1.1/DTD/svg11.dtd">
<!-- Creator: CorelDRAW -->
<svg xmlns="http://www.w3.org/2000/svg" xml:space="preserve" width="74.9156mm" height="32.8224mm" version="1.1" style="shape-rendering:geometricPrecision; text-rendering:geometricPrecision; image-rendering:optimizeQuality; fill-rule:evenodd; clip-rule:evenodd"
viewBox="0 0 5394.96 2363.67"
 xmlns:xlink="http://www.w3.org/1999/xlink"
 xmlns:xodm="http://www.corel.com/coreldraw/odm/2003">
 <defs>
  <style type="text/css">
   <![CDATA[
    .str0 {stroke:#373435;stroke-width:12.19;stroke-miterlimit:22.9256}
    .str1 {stroke:#373435;stroke-width:18.29;stroke-miterlimit:22.9256}
    .fil4 {fill:#E6E7E8}
    .fil5 {fill:#D2D3D5}
    .fil6 {fill:#BDBFC1}
    .fil3 {fill:#BDBFC1}
    .fil1 {fill:#4B4B4D}
    .fil0 {fill:#373435}
    .fil7 {fill:#C25A9E}
    .fil2 {fill:#B15390}
    .fil8 {fill:#575759}
   ]]>
  </style>
 </defs>
 <g id="Layer_x0020_1">
  <metadata id="CorelCorpID_0Corel-Layer"/>
  <path class="fil0 str0" d="M2905.7 859.13c-6.91,-167.52 43.65,-314.34 103.68,-442.71 101.66,-187.02 249.72,-307.38 438.22,-369.65 322.1,-48.15 651.98,-51.41 987.74,-21.2 282.68,40.5 474.64,152.06 599.89,315.89 105.21,159.78 178.57,361.79 264.23,595.07 88.31,352.65 123.79,654.4 48.08,928 -76.36,181.37 -213.7,315.93 -445.67,377.94 -255.52,73.47 -530.64,106.18 -817.3,114.87 -512.26,8.99 -860.39,-186.49 -984.8,-530.93l-194.06 -967.27zm1853.73 -361.45c292.89,337.46 373.72,735.48 344.23,1165 -101.89,-11.99 -180.7,-288.03 -248.6,-688.93 -50.95,-189.25 -90.13,-359.62 -95.63,-476.07z"/>
  <path class="fil1" d="M3134.56 242.45c-90.8,173.83 -111.79,379.59 -75.71,611.42 51.23,238.12 116.21,490.17 167.45,728.28 118.17,449.99 380.92,672.69 844.28,657.63 611.1,-5.13 1167.31,-147.2 1254.57,-350.45 83.78,-209.35 86.13,-545.36 -25.7,-952.81 -58.71,-217.54 -141.59,-419.3 -264.23,-595.07 -129.16,-152.93 -300.25,-265.05 -543.78,-306.71 -341.76,-42.24 -689.21,-41.89 -1043.85,12.02 -121.21,35.24 -225.37,100.78 -313.04,195.68zm1624.87 255.23c292.89,337.46 373.72,735.48 344.23,1164.99 -101.89,-11.98 -180.7,-288.03 -248.6,-688.92 -50.95,-189.25 -90.13,-359.62 -95.63,-476.07z"/>
  <path class="fil0" d="M3531.6 359.41c15.39,-54.55 45.96,-96.61 104.4,-115.81 159.45,-25.85 459.04,-32.78 820.04,-31.43 0.27,5.24 0.54,10.49 0.81,15.73 -303.51,-2.87 -581.56,3.78 -809.1,29.3 -51.82,-0.27 -87.78,54.46 -116.14,102.22z"/>
  <path class="fil0" d="M3448.77 434.68c7.57,-60.79 13.63,-121.08 36.08,-186.39 52.79,-59.53 131.41,-86.58 227.06,-92.19 244.53,-14.61 497.54,-6.68 752.62,6.75 -0.17,6.84 -0.35,13.68 -0.52,20.53 -278.61,-20.27 -716.55,-2.87 -749.15,-0.63 -100.47,4.59 -176.12,36.7 -205.2,87.9 -35.61,54.05 -45.63,109.14 -60.89,164.03z"/>
  <path class="fil0" d="M3463.77 631.19c-13.66,312.35 53.34,597.46 155.41,870.73 -76.31,-278.82 -131.78,-567.33 -155.41,-870.73z"/>
  <path class="fil0" d="M3917.45 1840.82c123.27,65.91 461,73.58 1033.9,17.42l-33.9 -45.56c-456.33,31.3 -772.86,24.51 -950.45,-20.16 -88.49,-19.88 -139.45,-66.44 -178.2,-121.67 25.75,71.48 63.52,132.56 128.66,169.97z"/>
  <path class="fil0" d="M4716.36 335.89c37.65,-78.08 100.96,-74.04 186.09,-0.17 126.77,114.42 216.84,317.74 286.6,570.26 64.09,210.37 80.3,418.98 59.25,626.2 -50.14,167.61 -127.43,201.21 -241.76,51.94 -134.67,-316.33 -303.59,-1050.39 -290.18,-1248.22zm43.08 161.79c292.88,337.46 373.71,735.48 344.21,1165 -101.88,-11.99 -180.69,-288.03 -248.59,-688.94 -50.95,-189.24 -90.13,-359.61 -95.62,-476.06z"/>
  <path class="fil2 str1" d="M3751.31 717.25c25.9,237.54 74.92,480.56 132.1,725.5 37.05,81.02 94.37,130 174.15,143.52 154.4,1.56 308.79,3.13 463.19,4.7 83.34,-4.62 135.41,-59.27 159.54,-158.68 -12.62,-263.52 -73.95,-521.5 -181.11,-735.67 -54.67,-59.99 -101.96,-95.5 -200.35,-110l-423.69 2.51c-92.41,5.85 -133.59,48.62 -123.83,128.13z"/>
  <path class="fil0" d="M3778.27 974.19c-15.66,-134.03 -33.76,-272.53 -5.93,-327.6 16.46,-26.12 43.05,-45.91 86.69,-55.02 299.27,-15.42 476.95,13.39 522.85,38.39 141.14,68.34 241.35,445.48 297.55,785.92 -12.95,-233.84 -70.21,-565.73 -174.71,-776.32 -36.02,-53.31 -102.2,-88.82 -207.78,-101.04 -150.87,-18.49 -301.13,-22.47 -450.45,-3.67 -69.62,17.77 -107.27,59.09 -110.38,125.87l42.16 313.47z"/>
  <g id="_2527421089504">
   <path class="fil3" d="M85.12 1238.87l-85.12 88.38 441.53 406.32 483.76 -14.88c29.09,-24.97 58.2,-49.94 87.3,-74.92 57.73,-40.94 122.78,-62.9 197.51,-59.63 40.18,-3.45 81.27,-16.4 124.39,-50.55 33.1,-17.33 66.21,-34.67 99.31,-52.01 90.07,41.72 174.14,108.36 257.87,176.43 77.84,-31.03 155.68,-62.06 233.52,-93.09 93.11,29.11 226.94,135.31 253.5,149.51 32.05,34.03 57.26,42.83 77.83,37.1l844.58 -4.29 84.76 -107.66 -1502.89 -342.02 -1597.85 -58.68z"/>
   <path class="fil4" d="M85.12 1238.87l297.2 -398.99c597.23,3.56 1184.66,-2.33 1781.9,1.23 61.25,-0.21 108.81,-30.66 146.95,-81.82l696.17 0.42 178.52 879.87 -919.51 19.21c-64.37,-53.64 -128.74,-107.26 -193.11,-160.9 -116.06,11.19 -212.96,37.99 -292.46,79.4 -98.78,-77.52 -195.44,-146.94 -279.78,-168.99l-189.79 118.02c-119.2,5.29 -219.82,34.1 -297.17,92.36l-497.21 17.05 -431.72 -396.85z"/>
   <polygon class="fil5" points="323.75,918.52 2686.16,908.44 2422.81,1056.09 199.57,1085.22 "/>
   <polygon class="fil5" points="199.33,1261.78 2713.41,1229.98 2579.56,1290.35 190.59,1310.16 "/>
   <polygon class="fil6" points="329.14,922.09 2679.83,908.47 2640.25,933.34 310.42,943.8 "/>
   <polygon class="fil6" points="199.33,1261.79 2697.15,1237.31 2628.72,1251.76 195.86,1281.03 "/>
  </g>
  <path class="fil7" d="M3908.51 1375c29.17,95.35 70.16,141.39 144.58,173.41 31.78,27.13 430.46,25.41 473.58,1.89 58,-21.84 109.88,-73.83 115.81,-136.96 -126.05,187.01 -637.19,171.54 -733.97,-38.34z"/>
  <ellipse class="fil7" transform="matrix(0.988731 0.1497 -0.1497 0.988731 4304.77 733.009)" rx="113.54" ry="99.34"/>
  <path class="fil8" d="M3320.03 98.28c-125.55,75.41 -185.46,132.28 -202.82,179.62 -45.57,96.07 -71.21,203.04 -74.02,322.51 -20.62,178.93 102.62,676.2 194.14,1021.59 24.82,98.9 71.85,206.73 153.33,328.44 89.31,117.53 199,193.81 322.76,241.56 -447.01,-151.93 -923.69,-1817.41 -393.39,-2093.72z"/>
 </g>
</svg>
